<svg id="Layer_1" data-name="Layer 1" xmlns="http://www.w3.org/2000/svg" viewBox="0 0 1296.61 404.14"><defs><style>.cls-1,.cls-2{fill:none;stroke:#000;}.cls-1{stroke-width:1.22px;}.cls-2{stroke-width:6.11px;}</style></defs><path d="M123.08,28.79V55H78.84V176.64H47.75V55H3.31V28.79Z"/><path d="M215.24,112.45v64.19H186.05v-66.5q0-8.82-3-14.24-3.91-7.64-14.85-7.63-11.33,0-17.2,7.58t-5.87,21.61v59.18H116.64V29.29h28.48V81.55q6.23-9.52,14.4-13.29a40.63,40.63,0,0,1,17.2-3.76A46.73,46.73,0,0,1,195.13,68a32.29,32.29,0,0,1,13.59,10.73,28.56,28.56,0,0,1,5.52,12.59Q215.23,97.8,215.24,112.45Z"/><path d="M313.12,144.54Q312,154.28,303,164.31q-14.06,15.94-39.32,15.94a55.39,55.39,0,0,1-36.82-13.44q-15.94-13.44-15.95-43.73,0-28.39,14.4-43.54T262.66,64.4a57.31,57.31,0,0,1,24.58,5.11,43.08,43.08,0,0,1,18.05,16.15,55.11,55.11,0,0,1,8.33,22.57,147.21,147.21,0,0,1,.9,21.67H239.69q.6,16.46,10.33,23.07a24.38,24.38,0,0,0,14.25,4.11q8.82,0,14.34-5a23.88,23.88,0,0,0,5.32-7.53ZM284.83,111q-.7-11.33-6.87-17.2A21.34,21.34,0,0,0,262.66,88q-9.93,0-15.4,6.22T240.39,111Z"/><path d="M129.84,283.36q10.93,0,17.76-2.41,12.93-4.62,12.94-17.15a12.66,12.66,0,0,0-6.42-11.34q-6.42-3.92-20.16-6.92L118.31,242q-23.07-5.22-31.9-11.34-15-10.23-15-32,0-19.86,14.45-33t42.43-13.14q23.37,0,39.87,12.39t17.3,36H155.82q-.8-13.34-11.63-19-7.23-3.7-18-3.71-11.94,0-19.06,4.82a15.33,15.33,0,0,0-7.12,13.44,12.71,12.71,0,0,0,7,11.83q4.52,2.61,19.26,6.12l25.48,6.12q16.75,4,25.28,10.74,13.24,10.42,13.24,30.19,0,20.26-15.5,33.65t-43.78,13.39q-28.89,0-45.44-13.19T69.06,259.08H98.55q1.4,10.14,5.51,15.15Q111.59,283.35,129.84,283.36Z"/><path d="M283.09,234.61H253.8a25.3,25.3,0,0,0-4.11-11Q244.88,217,234.74,217,220.3,217,215,231.3q-2.8,7.62-2.81,20.26,0,12,2.81,19.36,5.11,13.63,19.26,13.64,10,0,14.25-5.42t5.11-14h29.19a47.85,47.85,0,0,1-9.43,24.68q-13.44,18.75-39.82,18.75t-38.82-15.65q-12.43-15.64-12.44-40.62,0-28.18,13.74-43.84t37.92-15.64q20.57,0,33.65,9.23T283.09,234.61Z"/><path d="M379.16,240.52v64.2H350v-66.5q0-8.83-3-14.25-3.9-7.62-14.84-7.62-11.34,0-17.2,7.57t-5.87,21.62v59.18H280.56V157.37h28.49v52.26q6.21-9.52,14.39-13.29a40.67,40.67,0,0,1,17.21-3.76,46.64,46.64,0,0,1,18.4,3.51,32.16,32.16,0,0,1,13.59,10.73,28.56,28.56,0,0,1,5.52,12.59Q379.17,225.88,379.16,240.52Z"/><path d="M474.63,209.23q13.85,17.36,13.85,41,0,24.08-13.85,41.18t-42,17.1q-28.2,0-42-17.1t-13.85-41.18q0-23.67,13.85-41t42-17.36Q460.79,191.87,474.63,209.23Zm-42.12,6.82q-12.54,0-19.31,8.88t-6.78,25.32q0,16.46,6.78,25.38t19.31,8.93q12.53,0,19.25-8.93t6.73-25.38q0-16.44-6.73-25.32T432.51,216.05Z"/><path d="M577.73,209.23q13.85,17.36,13.84,41,0,24.08-13.84,41.18t-42,17.1q-28.19,0-42-17.1t-13.84-41.18q0-23.67,13.84-41t42-17.36Q563.89,191.87,577.73,209.23Zm-42.13,6.82q-12.54,0-19.31,8.88t-6.77,25.32q0,16.46,6.77,25.38t19.31,8.93q12.54,0,19.26-8.93t6.72-25.38q0-16.44-6.72-25.32T535.6,216.05Z"/><path d="M590.24,156.87h28.59V304.72H590.24Z"/><path class="cls-1" d="M717.23,209.23q13.83,17.36,13.84,41,0,24.08-13.84,41.18t-42,17.1q-28.2,0-42-17.1t-13.85-41.18q0-23.67,13.85-41t42-17.36Q703.39,191.87,717.23,209.23Zm-42.13,6.82q-12.54,0-19.31,8.88T649,250.25q0,16.46,6.77,25.38t19.31,8.93q12.52,0,19.26-8.93t6.72-25.38q0-16.44-6.72-25.32T675.1,216.05Z"/><path class="cls-1" d="M783.89,156v23.28c-1.61-.2-4.3-.36-8.08-.46s-6.38.74-7.82,2.51a9.09,9.09,0,0,0-2.16,5.87v9.23h18.76v20.16H765.83v88.17H737.35V216.55h-16V196.39H737v-7q0-17.55,5.92-24.18,6.22-9.83,30-9.83c1.8,0,3.44,0,4.91.15S781.35,155.76,783.89,156Z"/><path d="M854.81,304.72h-63.7V156.87h63.7q13.74.19,22.87,3.21a48.82,48.82,0,0,1,25.17,18.75,66,66,0,0,1,10.54,23.88,114.77,114.77,0,0,1,2.81,24.47q0,29.49-11.84,50Q888.31,304.72,854.81,304.72Zm23-110.14q-7.12-12-28.19-12H821.1V279h28.49q21.87,0,30.49-21.56,4.73-11.84,4.72-28.19Q884.8,206.72,877.78,194.58Z"/><path d="M918.88,207.22q11.34-14.44,38.92-14.44,18,0,31.9,7.12t13.94,26.88v50.16c0,3.47.07,7.69.2,12.63q.3,5.63,1.71,7.63a10.2,10.2,0,0,0,4.21,3.31v4.21h-31.1a31.51,31.51,0,0,1-1.8-6.22c-.34-1.94-.6-4.14-.8-6.62a58.9,58.9,0,0,1-13.65,10.94,41,41,0,0,1-20.86,5.31q-14.85,0-24.53-8.47t-9.68-24q0-20.16,15.55-29.19,8.54-4.91,25.08-7l9.73-1.2q7.92-1,11.33-2.51,6.12-2.61,6.12-8.13,0-6.72-4.66-9.27t-13.69-2.56q-10.14,0-14.35,5a21,21,0,0,0-4,10H910.85Q911.77,216.45,918.88,207.22Zm21.26,76.84a15,15,0,0,0,9.84,3.31A29.14,29.14,0,0,0,967,282q7.77-5.42,8.07-19.76V251.56a31.47,31.47,0,0,1-5.46,2.76,46,46,0,0,1-7.58,1.95l-6.42,1.21q-9,1.61-12.94,3.91Q936,265.31,936,273.53,936,280.85,940.14,284.06Z"/><path d="M1058.08,216.55q-14.53,0-20,12.34-2.8,6.53-2.81,16.65v59.18h-28.48V195.59h27.58v15.94q5.52-8.42,10.43-12.13,8.84-6.63,22.37-6.62,16.95,0,27.74,8.87t10.78,29.44v73.63h-29.29v-66.5q0-8.62-2.31-13.24Q1069.93,216.55,1058.08,216.55Z"/><path d="M1204.31,234.61H1175a25.3,25.3,0,0,0-4.11-11q-4.82-6.62-15-6.62-14.45,0-19.76,14.35-2.81,7.62-2.81,20.26,0,12,2.81,19.36,5.11,13.63,19.26,13.64,10,0,14.25-5.42t5.11-14H1204a47.85,47.85,0,0,1-9.43,24.68q-13.44,18.75-39.82,18.75t-38.82-15.65q-12.43-15.64-12.44-40.62,0-28.18,13.74-43.84t37.92-15.64q20.56,0,33.65,9.23T1204.31,234.61Z"/><path d="M1295.17,272.62q-1.11,9.74-10.13,19.76-14.05,16-39.32,15.95a55.48,55.48,0,0,1-36.82-13.44q-15.95-13.44-16-43.73,0-28.4,14.4-43.54t37.36-15.14a57.31,57.31,0,0,1,24.58,5.11,43.08,43.08,0,0,1,18,16.15,55.11,55.11,0,0,1,8.33,22.57,144.45,144.45,0,0,1,.9,21.67h-74.83q.6,16.45,10.33,23.07a24.38,24.38,0,0,0,14.25,4.11q8.82,0,14.34-5a23.88,23.88,0,0,0,5.32-7.53Zm-28.29-33.5q-.7-11.34-6.87-17.2a21.3,21.3,0,0,0-15.3-5.87q-9.93,0-15.39,6.22t-6.88,16.85Z"/><line class="cls-2" x1="3.31" y1="335.82" x2="1296.6" y2="330.65"/></svg>